<!--Generated by IcoMoon.io-->
<svg xmlns="http://www.w3.org/2000/svg" width="32" height="32" version="1.1" viewBox="0 0 32 32">
    <title>
        grains-symbol
    </title>
    <defs>
        <style type="text/css">
            <![CDATA[
       path {
         fill: #ffffff;
       }
    ]]>
        </style>
    </defs>
    <path d="M27.954 3.363v4.73c-0.106 0.686-0.566 1.319-1.219 1.617-0.813 0.317-1.802 0.194-2.686 0.211 0.777-0.158 1.59-0.915 1.714-1.741 0.053-0.879 0.035-1.829 0.018-2.638-0.141-0.088-0.3-0.035-0.459-0.053-1.078 0.123-2.403-0.281-3.251 0.545-0.335 0.369-0.618 0.791-0.707 1.266 0-0.845-0.124-1.724 0.124-2.55 0.265-0.774 1.042-1.354 1.855-1.425 1.537 0 3.073-0.017 4.593-0.017l0.018 0.053zM19.494 3.678c-1.49 0.143-2.873 0.625-4.111 1.464-0.018 0.035-0.036 0.053-0.090 0.053-2.154 1.588-3.357 3.889-3.429 6.476l-0.018 5.067c-0.197 2.088-1.095 3.961-2.657 5.424-1.795 1.767-3.626 3.658-5.44 5.424l-0.054-0.017v-3.123l-0.018-13.060c0.143-2.998 2.226-5.959 5.080-7.048 1.024-0.411 2.155-0.66 3.357-0.624l7.379-0.036z"/>
    <path d="M23.54 8.197l-0.018 4.647c-0.089 0.739-0.655 1.408-1.328 1.69-0.815 0.299-1.682 0.123-2.567 0.159 0.053-0.070 0.159-0.070 0.248-0.088 0.744-0.211 1.381-0.985 1.469-1.725 0.036-0.88 0.036-1.655 0.018-2.57-0.62-0.070-1.293 0-1.93-0.035-0.921-0.088-1.842 0.335-2.284 1.197-0.081 0.169-0.153 0.368-0.207 0.574l-0.005 0.024c0-0.704-0.036-1.285 0-2.042 0.054-0.722 0.619-1.426 1.293-1.725 0.212-0.106 0.46-0.158 0.708-0.176 1.576-0.018 2.993-0.018 4.587-0.035l0.018 0.105zM28.321 20.018c0.036 2.498-0.864 4.761-2.72 6.463-1.747 1.557-3.946 2.28-6.378 2.136l-9.657 0.072h-5.152v-0.054l4.775-4.833c1.405-1.594 3.152-2.915 5.188-3.295 0.757-0.163 1.567-0.163 2.396-0.163 1.819-0.090 3.855 0.199 5.585-0.344 1.927-0.543 3.801-1.937 4.828-3.801 0.666-1.105 1.045-2.354 1.117-3.693l0.018 0.796v6.716z"/>
    <path d="M19.097 12.506c0.035 1.532 0.035 3.081 0.017 4.7-0.106 0.757-0.673 1.514-1.416 1.778-0.814 0.264-1.611 0.070-2.479 0.123h-0.017c0.761-0.158 1.505-0.845 1.682-1.601l0.088-0.494-0.035-2.305c-0.291-0.008-0.634-0.012-0.978-0.012-0.54 0-1.078 0.011-1.613 0.032l0.077-0.002c-0.761 0.088-1.54 0.668-1.788 1.408l-0.106 0.352c0-0.651-0.035-1.285-0.018-1.972 0.036-0.792 0.655-1.566 1.399-1.848 0.301-0.088 0.637-0.176 0.992-0.14 1.416 0 2.797-0.018 4.196-0.018z"/>
    <path d="M29.878 20.797c-0.178 3.769-2.715 7.335-6.172 8.678-1.241 0.502-2.506 0.757-3.761 0.757-0.084 0-0.168-0.001-0.252-0.004h-17.921v-2.558l-0.019-16.388 0.002-0.043c0.178-3.769 2.716-7.335 6.172-8.678 1.241-0.503 2.506-0.757 3.761-0.757 0.083 0 0.166 0 0.25 0.003l17.94-0.040 0.001 18.987-0.002 0.043zM31.614 4.328v-4.325h-19.652c-0.079-0.002-0.173-0.003-0.266-0.003-0.003 0-0.005 0-0.008 0h0c-1.476 0-2.958 0.296-4.404 0.879-4.078 1.59-7.071 5.798-7.281 10.239h-0.003l0 20.882 19.673-0.043c0.090 0.002 0.18 0.003 0.27 0.003 1.476 0 2.958-0.296 4.404-0.879 4.077-1.591 7.071-5.799 7.28-10.237l0.004-0.086-0.018-16.43z"/>
</svg>
