<svg xmlns="http://www.w3.org/2000/svg" width="289" height="70" viewBox="0 0 289 70">
    <g fill="#FFF" fill-rule="evenodd" transform="translate(10 8)">
        <path d="M45.6890379,32.2693294 C45.4166764,37.9912828 41.5367055,43.4054519 36.2500583,45.4434402 C34.3529738,46.2062099 32.418105,46.5927114 30.4989796,46.5927114 C30.3706706,46.5927114 30.2423615,46.5903499 30.1132653,46.5879883 L2.70865889,46.5879883 L2.70865889,42.7032945 L2.6803207,17.824723 L2.68268222,17.7593878 C2.9558309,12.0382216 6.83580175,6.62405248 12.1216618,4.58527697 C14.0187464,3.82172012 15.9536152,3.43600583 17.8735277,3.43600583 C18.0002624,3.43600583 18.1269971,3.436793 18.2553061,3.44072886 L45.6898251,3.38011662 L45.6913994,32.2055685 L45.6890379,32.2693294 Z M48.3425948,7.26638484 L48.3425948,0.701370262 L18.291516,0.701370262 C18.1513994,0.698221574 18.0112828,0.69664723 17.8727405,0.69664723 C15.614344,0.69664723 13.348863,1.14612245 11.138484,2.03169096 C4.90250729,4.44516035 0.325102041,10.8330612 0.00393586006,17.5744023 L0,17.5744023 L0,49.2769679 L30.0841399,49.2100583 C30.2226822,49.2139942 30.3604373,49.2155685 30.4974052,49.2155685 C32.7558017,49.2155685 35.0212828,48.7660933 37.2316618,47.8797376 C43.4668513,45.4646939 48.0442566,39.0775802 48.3654227,32.3393878 L48.3717201,32.2087172 L48.3425948,7.26638484 Z"/>
        <path d="M42.9819534 6.09428571L42.9819534 13.4535569C42.8182216 14.5209621 42.1058309 15.5057143 41.0943149 15.9709329 39.8348397 16.4637026 38.3030029 16.2716327 36.934898 16.2999708 38.138484 16.053586 39.397172 14.8767638 39.589242 13.591312 39.6711079 12.2224198 39.6435569 10.744898 39.6160058 9.48620991 39.397172 9.35002915 39.1507872 9.43189504 38.9051895 9.40434402 37.2363848 9.59562682 35.1842274 8.96667638 33.8704373 10.2529155 33.3509038 10.827551 32.9132362 11.4840525 32.7762682 12.2224198 32.7762682 10.9094169 32.5849854 9.54131195 32.967551 8.25507289 33.3784548 7.05148688 34.5820408 6.14860058 35.8407289 6.03918367 38.221137 6.03918367 40.6015452 6.01163265 42.9544023 6.01163265L42.9819534 6.09428571M29.4654227 6.03918367C27.1944315 6.25801749 25.0879592 6.99717201 23.2003207 8.28262391 23.1727697 8.33693878 23.1452187 8.36527697 23.0633528 8.36527697 19.7800583 10.8 17.9467347 14.3296793 17.8373178 18.2970262L17.8105539 26.0672012C17.5090671 29.2686297 16.1409621 32.1410204 13.7605539 34.3852478 11.024344 37.0939067 8.23381924 39.9938484 5.47005831 42.7025073L5.38819242 42.6749563 5.38819242 37.8873761 5.3606414 17.8593586C5.57947522 13.2622741 8.75335277 8.72107872 13.1032653 7.05148688 14.6634402 6.42174927 16.3873469 6.03918367 18.2198834 6.09428571L28.6995044 6.03918367 29.4654227 6.03918367"/>
        <path d="M36.1422157 13.0985423L36.1138776 20.3216327C35.9776968 21.4709038 35.1015743 22.5099708 34.0617201 22.9476385 32.8038192 23.4128571 31.4632653 23.1397085 30.0951603 23.1948105 30.1770262 23.0853936 30.340758 23.0853936 30.4777259 23.0578426 31.6277843 22.7295918 32.6125364 21.5252187 32.7487172 20.3759475 32.8038192 19.0078426 32.8038192 17.8042566 32.7762682 16.3818367 31.8182799 16.2716327 30.7792128 16.3818367 29.7936735 16.3267347 28.3712536 16.1897668 26.9480466 16.8462682 26.2639942 18.1868222 26.1278134 18.488309 26.0183965 18.7890087 25.9357434 19.1180466 25.9357434 18.0230904 25.8806414 17.1209913 25.9357434 15.9433819 26.0183965 14.8216618 26.8937318 13.7274927 27.933586 13.2622741 28.2618367 13.0985423 28.6451895 13.0158892 29.0277551 12.9883382 31.4632653 12.9615743 33.6523907 12.9615743 36.1138776 12.9340233L36.1422157 13.0985423M43.0095044 30.8555685C43.0638192 34.6316327 41.6957143 38.0511079 38.8776385 40.623586 36.2240816 42.9764431 32.8856851 44.0706122 29.1922741 43.8517784L25.1698251 43.8793294 14.5264723 43.9611953 6.70119534 43.9611953 6.70119534 43.8793294 13.9526239 36.573586C16.0866472 34.1656268 18.7402041 32.1685714 21.8322157 31.594723 22.9806997 31.347551 24.2126239 31.347551 25.471312 31.347551 28.2342857 31.2105831 31.3262974 31.6490379 33.9530904 30.8280175 36.8805831 30.0069971 39.7262099 27.9005248 41.2855977 25.082449 42.2979009 23.4128571 42.8725364 21.5252187 42.9819534 19.5006122L43.0095044 20.7041983 43.0095044 30.8555685"/>
        <path d="M29.2741399 19.8296501C29.3284548 22.2092711 29.3284548 24.6172303 29.301691 27.1346064 29.137172 28.3106414 28.2618367 29.4874636 27.1125656 29.8975802 25.8538776 30.308484 24.6227405 30.0069971 23.2821866 30.0896501L23.2546356 30.0896501C24.4314577 29.8432653 25.5807289 28.7758601 25.8538776 27.5998251L25.9908455 26.8331195 25.9357434 23.2491254C24.6502915 23.2215743 23.3640525 23.2215743 22.0510496 23.2766764 20.8750146 23.4128571 19.6706414 24.3157434 19.2872886 25.4658017L19.1235569 26.0120991C19.1235569 25.0005831 19.0684548 24.0150437 19.0952187 22.9476385 19.1511079 21.7165015 20.108309 20.5129155 21.2575802 20.0752478 21.7227988 19.9390671 22.2423324 19.801312 22.7894169 19.856414 24.9777551 19.856414 27.1125656 19.8296501 29.2741399 19.8296501M81.27 26.5182507C79.5413703 28.0225364 77.151516 28.7742857 74.1004373 28.7742857 71.0060641 28.7742857 68.6114869 28.0272595 66.9151312 26.5339942 65.2187755 25.0407289 64.3702041 22.7358892 64.3702041 19.6202624L64.3702041 5.41023324 69.3955102 5.41023324 69.3955102 19.6202624C69.3955102 20.2397668 69.4482507 20.8474636 69.5553061 21.4449271 69.6623615 22.0423907 69.8859184 22.5705831 70.227551 23.0287172 70.5683965 23.4884257 71.0438484 23.8615452 71.6515452 24.1496501 72.2600292 24.4377551 73.0763265 24.5818076 74.1004373 24.5818076 75.892828 24.5818076 77.1294752 24.181137 77.8127405 23.3813703 78.4952187 22.5816035 78.8368513 21.3276385 78.8368513 19.6202624L78.8368513 5.41023324 83.8621574 5.41023324 83.8621574 19.6202624C83.8621574 22.7146356 82.9978426 25.0131778 81.27 26.5182507"/>
        <polygon points="88.854 28.263 93.88 28.263 93.88 23.333 88.854 23.333"/>
        <path d="M103.641429,22.6288338 C103.918513,23.1625364 104.28691,23.5946939 104.745831,23.9253061 C105.203965,24.2567055 105.743178,24.501516 106.362682,24.661312 C106.980612,24.821895 107.620583,24.9013994 108.282595,24.9013994 C108.730496,24.9013994 109.210671,24.8644023 109.72312,24.789621 C110.234781,24.7148397 110.714956,24.5707872 111.162857,24.3574636 C111.611545,24.1441399 111.984665,23.8505248 112.28379,23.4774052 C112.582128,23.1042857 112.730904,22.6288338 112.730904,22.0534111 C112.730904,21.4339067 112.534111,20.9324781 112.13895,20.5483382 C111.744577,20.1649854 111.227405,19.8446064 110.586647,19.5887755 C109.946676,19.3329446 109.220904,19.1086006 108.410904,18.9165306 C107.599329,18.7244606 106.778309,18.511137 105.946268,18.2765598 C105.092187,18.0632362 104.260146,17.801895 103.449359,17.4925364 C102.638571,17.1831778 101.913586,16.7832945 101.273615,16.2920991 C100.632857,15.8009038 100.115685,15.1876968 99.721312,14.451691 C99.3261516,13.7156851 99.1293586,12.8246064 99.1293586,11.779242 C99.1293586,10.6055685 99.3796793,9.58696793 99.8811079,8.72265306 C100.381749,7.85833819 101.038251,7.1380758 101.849038,6.56186589 C102.660612,5.98644315 103.577668,5.55979592 104.601778,5.2819242 C105.625889,5.00483965 106.65,4.8655102 107.674898,4.8655102 C108.869038,4.8655102 110.015948,4.99932945 111.115627,5.26539359 C112.213732,5.53303207 113.189825,5.9651895 114.04312,6.56186589 C114.897201,7.15932945 115.574169,7.92209913 116.075598,8.85017493 C116.577026,9.77825073 116.828134,10.9046939 116.828134,12.2271429 L111.963411,12.2271429 C111.920117,11.5446647 111.776064,10.978688 111.531254,10.5307872 C111.285656,10.0828863 110.959767,9.73102041 110.55516,9.47440233 C110.149767,9.21857143 109.685335,9.03752187 109.162653,8.93046647 C108.639971,8.82419825 108.069271,8.77067055 107.450554,8.77067055 C107.044373,8.77067055 106.639767,8.81317784 106.234373,8.89819242 C105.828192,8.98399417 105.460583,9.13355685 105.129971,9.34688047 C104.798571,9.56020408 104.526997,9.82626822 104.313673,10.1466472 C104.10035,10.4670262 103.993294,10.8724198 103.993294,11.362828 C103.993294,11.8107289 104.079096,12.1744023 104.249913,12.4506997 C104.419942,12.7285714 104.756851,12.9851895 105.25828,13.2189796 C105.759708,13.454344 106.45242,13.6889213 107.337988,13.9234985 C108.223557,14.158863 109.381487,14.4572012 110.810991,14.8200875 C111.237638,14.905102 111.829592,15.0593878 112.587638,15.2837318 C113.344111,15.5080758 114.096647,15.8654519 114.844461,16.3558601 C115.5907,16.8470554 116.236181,17.5027697 116.780117,18.3237901 C117.324052,19.1455977 117.596414,20.1964723 117.596414,21.4772012 C117.596414,22.5225656 117.393324,23.4931487 116.988717,24.3889504 C116.582536,25.2855394 115.979563,26.0585423 115.179796,26.7095335 C114.380029,27.361312 113.387405,27.8674636 112.203499,28.2303499 C111.018805,28.592449 109.647551,28.7742857 108.090525,28.7742857 C106.83105,28.7742857 105.610146,28.6192128 104.425452,28.3098542 C103.241545,28.0012828 102.196181,27.5155977 101.289359,26.853586 C100.381749,26.1923615 99.6614869,25.3500875 99.1293586,24.3251895 C98.5948688,23.3010787 98.3390379,22.084898 98.3610787,20.6766472 L103.225802,20.6766472 C103.225802,21.4449271 103.364344,22.0959184 103.641429,22.6288338"/>
        <polygon points="122.205 28.263 127.229 28.263 127.229 23.333 122.205 23.333"/>
        <path d="M153.66621 28.0862974C152.578338 28.5444315 151.478659 28.7742857 150.369534 28.7742857 148.61965 28.7742857 147.046093 28.4696501 145.648863 27.8619534 144.250845 27.2542566 143.072449 26.4167055 142.112099 25.3500875 141.151749 24.2826822 140.415743 23.0287172 139.904082 21.5889796 139.391633 20.1484548 139.135802 18.5961516 139.135802 16.93207 139.135802 15.225481 139.391633 13.6409038 139.904082 12.1791254 140.415743 10.7181341 141.151749 9.44291545 142.112099 8.35425656 143.072449 7.26638484 144.250845 6.41309038 145.648863 5.79358601 147.046093 5.17565598 148.61965 4.8655102 150.369534 4.8655102 151.543207 4.8655102 152.679096 5.04183673 153.777988 5.39370262 154.87688 5.74556851 155.869504 6.2635277 156.755073 6.94600583 157.639854 7.62927114 158.371137 8.47154519 158.947347 9.47440233 159.523557 10.4780466 159.87621 11.6296793 160.003732 12.9316618L155.20277 12.9316618C154.903644 11.6509329 154.327434 10.6913703 153.474927 10.0506122 152.620845 9.4106414 151.585714 9.09026239 150.369534 9.09026239 149.238367 9.09026239 148.278017 9.30988338 147.489271 9.74676385 146.699738 10.1844315 146.059767 10.7708746 145.569359 11.5068805 145.077376 12.2428863 144.720787 13.0812245 144.496443 14.0195335 144.272886 14.9586297 144.161108 15.9292128 144.161108 16.93207 144.161108 17.8916327 144.272886 18.8260058 144.496443 19.732828 144.720787 20.6396501 145.077376 21.4559475 145.569359 22.1809329 146.059767 22.9067055 146.699738 23.4884257 147.489271 23.9253061 148.278017 24.3629738 149.238367 24.5818076 150.369534 24.5818076 152.034402 24.5818076 153.319067 24.1606706 154.226676 23.3176093 155.133499 22.4745481 155.661691 21.2528571 155.811254 19.6525364L150.753673 19.6525364 150.753673 15.9079592 160.355598 15.9079592 160.355598 28.2618367 157.154956 28.2618367 156.643294 25.6696793C155.746706 26.8220991 154.754869 27.6273761 153.66621 28.0862974M176.870466 15.7473761C178.022099 15.7473761 178.886414 15.4915452 179.462624 14.9798834 180.038834 14.4674344 180.326939 13.6353936 180.326939 12.4829738 180.326939 11.3738484 180.038834 10.5685714 179.462624 10.0671429 178.886414 9.56571429 178.022099 9.31460641 176.870466 9.31460641L171.364985 9.31460641 171.364985 15.7473761 176.870466 15.7473761zM178.662857 5.41023324C179.686968 5.41023324 180.609534 5.57553936 181.430554 5.9061516 182.252362 6.23676385 182.956093 6.69017493 183.543324 7.26638484 184.130554 7.84259475 184.578455 8.50932945 184.887813 9.26658892 185.197172 10.0238484 185.352245 10.8401458 185.352245 11.7146939 185.352245 13.0591837 185.068863 14.2226239 184.503673 15.2042274 183.937697 16.1858309 183.015131 16.93207 181.73519 17.444519L181.73519 17.5082799C182.353907 17.6790962 182.866356 17.9404373 183.271749 18.2923032 183.676356 18.6441691 184.007755 19.0605831 184.263586 19.540758 184.519417 20.0209329 184.706764 20.5483382 184.824052 21.1245481 184.940554 21.700758 185.020845 22.2769679 185.06414 22.8531778 185.084606 23.2160641 185.106647 23.6427114 185.127901 24.1331195 185.149155 24.6243149 185.186152 25.1257434 185.240466 25.6374052 185.293207 26.1498542 185.378222 26.6355394 185.49551 27.0936735 185.612799 27.5525948 185.789125 27.9422449 186.023703 28.2618367L180.999184 28.2618367C180.721312 27.5368513 180.551283 26.6725364 180.487522 25.6696793 180.422974 24.6668222 180.326939 23.7064723 180.19863 22.7894169 180.027813 21.5944898 179.665714 20.7199417 179.110758 20.1649854 178.555802 19.6100292 177.64898 19.3329446 176.390292 19.3329446L171.364985 19.3329446 171.364985 28.2618367 166.340466 28.2618367 166.340466 5.41023324 178.662857 5.41023324zM203.050233 19.4281924L200.169971 11.0432362 200.10621 11.0432362 197.129913 19.4281924 203.050233 19.4281924zM202.762128 5.41023324L211.307668 28.2618367 206.091866 28.2618367 204.363236 23.1727697 195.81691 23.1727697 194.025306 28.2618367 188.968513 28.2618367 197.610087 5.41023324 202.762128 5.41023324z"/>
        <polygon points="215.213 28.263 220.237 28.263 220.237 5.41 215.213 5.41"/>
        <polyline points="231.568 5.41 241.105 20.74 241.17 20.74 241.17 5.41 245.875 5.41 245.875 28.262 240.849 28.262 231.344 12.963 231.28 12.963 231.28 28.262 226.575 28.262 226.575 5.41 231.568 5.41"/>
        <path d="M255.412128 22.6288338C255.689213 23.1625364 256.056822 23.5946939 256.516531 23.9253061 256.974665 24.2567055 257.513878 24.501516 258.132595 24.661312 258.751312 24.821895 259.390496 24.9013994 260.052507 24.9013994 260.501195 24.9013994 260.98137 24.8644023 261.493032 24.789621 262.005481 24.7148397 262.485656 24.5707872 262.93277 24.3574636 263.381458 24.1441399 263.754577 23.8505248 264.053703 23.4774052 264.352041 23.1042857 264.502391 22.6288338 264.502391 22.0534111 264.502391 21.4339067 264.30481 20.9324781 263.90965 20.5483382 263.51449 20.1649854 262.997318 19.8446064 262.357347 19.5887755 261.718163 19.3329446 260.992391 19.1086006 260.180816 18.9165306 259.369242 18.7244606 258.548222 18.511137 257.716968 18.2765598 256.862886 18.0632362 256.030845 17.801895 255.220058 17.4925364 254.408484 17.1831778 253.683499 16.7832945 253.043528 16.2920991 252.403557 15.8009038 251.885598 15.1876968 251.491224 14.451691 251.096064 13.7156851 250.899271 12.8246064 250.899271 11.779242 250.899271 10.6055685 251.150379 9.58696793 251.65102 8.72265306 252.152449 7.85833819 252.80895 7.1380758 253.61895 6.56186589 254.430525 5.98644315 255.348367 5.55979592 256.372478 5.2819242 257.396589 5.00483965 258.4207 4.8655102 259.44481 4.8655102 260.639738 4.8655102 261.78586 4.99932945 262.885539 5.26539359 263.983644 5.53303207 264.960525 5.9651895 265.813819 6.56186589 266.667901 7.15932945 267.344869 7.92209913 267.846297 8.85017493 268.347726 9.77825073 268.598834 10.9046939 268.598834 12.2271429L263.733324 12.2271429C263.690029 11.5446647 263.546764 10.978688 263.301166 10.5307872 263.056356 10.0828863 262.730466 9.73102041 262.325073 9.47440233 261.919679 9.21857143 261.456035 9.03752187 260.932566 8.93046647 260.409883 8.82419825 259.839184 8.77067055 259.221254 8.77067055 258.815073 8.77067055 258.409679 8.81317784 258.005073 8.89819242 257.598892 8.98399417 257.230496 9.13355685 256.899883 9.34688047 256.569271 9.56020408 256.297697 9.82626822 256.084373 10.1466472 255.87105 10.4670262 255.763994 10.8724198 255.763994 11.362828 255.763994 11.8107289 255.849009 12.1744023 256.019825 12.4506997 256.190641 12.7285714 256.526764 12.9851895 257.028192 13.2189796 257.529621 13.454344 258.22312 13.6889213 259.108688 13.9234985 259.993469 14.158863 261.151399 14.4572012 262.580904 14.8200875 263.007551 14.905102 263.600292 15.0593878 264.357551 15.2837318 265.11481 15.5080758 265.86656 15.8654519 266.614373 16.3558601 267.360612 16.8470554 268.00688 17.5027697 268.550029 18.3237901 269.094752 19.1455977 269.366327 20.1964723 269.366327 21.4772012 269.366327 22.5225656 269.164023 23.4931487 268.75863 24.3889504 268.352449 25.2855394 267.750262 26.0585423 266.950496 26.7095335 266.149942 27.361312 265.158105 27.8674636 263.974198 28.2303499 262.789504 28.592449 261.418251 28.7742857 259.861224 28.7742857 258.601749 28.7742857 257.380845 28.6192128 256.196152 28.3098542 255.012245 28.0012828 253.966093 27.5155977 253.059271 26.853586 252.152449 26.1923615 251.432187 25.3500875 250.899271 24.3251895 250.365569 23.3010787 250.10895 22.084898 250.130991 20.6766472L254.995714 20.6766472C254.995714 21.4449271 255.134257 22.0959184 255.412128 22.6288338M73.1755102 38.9650146C72.9920991 38.6690379 72.7622449 38.4100583 72.4867347 38.1865015 72.2104373 37.9637318 71.89793 37.7889796 71.5507872 37.6646064 71.2028571 37.5402332 70.8383965 37.4772595 70.4574052 37.4772595 69.7615452 37.4772595 69.170379 37.6118659 68.6846939 37.8810787 68.1982216 38.1502915 67.8046356 38.5116035 67.5023615 38.9650146 67.2000875 39.4176385 66.9804665 39.9332362 66.8427114 40.5110204 66.7049563 41.0888047 66.6356851 41.6862682 66.6356851 42.3034111 66.6356851 42.8945773 66.7049563 43.4692128 66.8427114 44.0273178 66.9804665 44.5854227 67.2000875 45.0876385 67.5023615 45.533965 67.8046356 45.9802915 68.1982216 46.3384548 68.6846939 46.6076676 69.170379 46.8768805 69.7615452 47.0114869 70.4574052 47.0114869 71.4027988 47.0114869 72.1419534 46.7225948 72.6732945 46.1448105 73.2054227 45.5670262 73.5305248 44.8050437 73.6486006 43.8596501L76.6422157 43.8596501C76.5642857 44.7397085 76.359621 45.533965 76.0321574 46.243207 75.7031195 46.952449 75.2701749 47.5562099 74.7317493 48.055277 74.1933236 48.554344 73.5627988 48.9353353 72.8409621 49.1982507 72.1183382 49.460379 71.3240816 49.5918367 70.4574052 49.5918367 69.3805539 49.5918367 68.4115452 49.4044898 67.5519534 49.0305831 66.6915743 48.6566764 65.9658017 48.1410787 65.3754227 47.4837901 64.7842566 46.8272886 64.3308455 46.0558601 64.0159767 45.1695044 63.7003207 44.2831487 63.5428863 43.3275219 63.5428863 42.3034111 63.5428863 41.2533236 63.7003207 40.2780175 64.0159767 39.3782799 64.3308455 38.4785423 64.7842566 37.6937318 65.3754227 37.0238484 65.9658017 36.3547522 66.6915743 35.8297085 67.5519534 35.4487172 68.4115452 35.0677259 69.3805539 34.8772303 70.4574052 34.8772303 71.2319825 34.8772303 71.9640525 34.9890087 72.6536152 35.2117784 73.3431778 35.4353353 73.9603207 35.7604373 74.5050437 36.1870845 75.0497668 36.6137318 75.5000292 37.1427114 75.8542566 37.772449 76.2092711 38.4029738 76.432828 39.1255977 76.5241399 39.9395335L73.5305248 39.9395335C73.4777843 39.5853061 73.3589213 39.2602041 73.1755102 38.9650146M82.6207872 44.0273178C82.7593294 44.5854227 82.9789504 45.0876385 83.2812245 45.533965 83.5827114 45.9802915 83.9770845 46.3384548 84.4627697 46.6076676 84.9484548 46.8768805 85.539621 47.0114869 86.235481 47.0114869 86.9321283 47.0114869 87.5225073 46.8768805 88.0089796 46.6076676 88.4938776 46.3384548 88.8882507 45.9802915 89.1905248 45.533965 89.4920117 45.0876385 89.7124198 44.5854227 89.8501749 44.0273178 89.98793 43.4692128 90.0572012 42.8945773 90.0572012 42.3034111 90.0572012 41.6862682 89.98793 41.0888047 89.8501749 40.5110204 89.7124198 39.9332362 89.4920117 39.4176385 89.1905248 38.9650146 88.8882507 38.5116035 88.4938776 38.1502915 88.0089796 37.8810787 87.5225073 37.6118659 86.9321283 37.4772595 86.235481 37.4772595 85.539621 37.4772595 84.9484548 37.6118659 84.4627697 37.8810787 83.9770845 38.1502915 83.5827114 38.5116035 83.2812245 38.9650146 82.9789504 39.4176385 82.7593294 39.9332362 82.6207872 40.5110204 82.4830321 41.0888047 82.4145481 41.6862682 82.4145481 42.3034111 82.4145481 42.8945773 82.4830321 43.4692128 82.6207872 44.0273178zM79.7940525 39.3782799C80.1097085 38.4785423 80.5623324 37.6937318 81.1534985 37.0238484 81.7446647 36.3547522 82.4704373 35.8297085 83.3300292 35.4487172 84.1904082 35.0677259 85.1586297 34.8772303 86.235481 34.8772303 87.3257143 34.8772303 88.2970845 35.0677259 89.1511662 35.4487172 90.0044606 35.8297085 90.7270845 36.3547522 91.3182507 37.0238484 91.9086297 37.6937318 92.3620408 38.4785423 92.6769096 39.3782799 92.9925656 40.2780175 93.15 41.2533236 93.15 42.3034111 93.15 43.3275219 92.9925656 44.2831487 92.6769096 45.1695044 92.3620408 46.0558601 91.9086297 46.8272886 91.3182507 47.4837901 90.7270845 48.1410787 90.0044606 48.6566764 89.1511662 49.0305831 88.2970845 49.4044898 87.3257143 49.5918367 86.235481 49.5918367 85.1586297 49.5918367 84.1904082 49.4044898 83.3300292 49.0305831 82.4704373 48.6566764 81.7446647 48.1410787 81.1534985 47.4837901 80.5623324 46.8272886 80.1097085 46.0558601 79.7940525 45.1695044 79.4791837 44.2831487 79.3217493 43.3275219 79.3217493 42.3034111 79.3217493 41.2533236 79.4791837 40.2780175 79.7940525 39.3782799zM106.780671 48.2032653C105.717201 49.1289796 104.246764 49.5918367 102.368571 49.5918367 100.464402 49.5918367 98.9900292 49.1321283 97.9462391 48.2127114 96.902449 47.2940816 96.3797668 45.8755977 96.3797668 43.9580466L96.3797668 35.2117784 99.4733528 35.2117784 99.4733528 43.9580466C99.4733528 44.3390379 99.5056268 44.7129446 99.5717493 45.0813411 99.6370845 45.4489504 99.7748397 45.7732653 99.9858017 46.0558601 100.19519 46.3384548 100.48723 46.568309 100.861924 46.7454227 101.235831 46.9225364 101.738047 47.0114869 102.368571 47.0114869 103.471399 47.0114869 104.233382 46.765102 104.653732 46.2723324 105.073294 45.7803499 105.284257 45.0089213 105.284257 43.9580466L105.284257 35.2117784 108.377055 35.2117784 108.377055 43.9580466C108.377055 45.8622157 107.844927 47.277551 106.780671 48.2032653"/>
        <polyline points="115.291 35.212 121.161 44.648 121.2 44.648 121.2 35.212 124.096 35.212 124.096 49.277 121.003 49.277 115.153 39.861 115.114 39.861 115.114 49.277 112.218 49.277 112.218 35.212 115.291 35.212"/>
        <path d="M137.018309,38.9650146 C136.834111,38.6690379 136.604257,38.4100583 136.328746,38.1865015 C136.053236,37.9637318 135.740729,37.7889796 135.393586,37.6646064 C135.044869,37.5402332 134.680408,37.4772595 134.299417,37.4772595 C133.603557,37.4772595 133.013178,37.6118659 132.526706,37.8810787 C132.04102,38.1502915 131.647434,38.5116035 131.34516,38.9650146 C131.042886,39.4176385 130.822478,39.9332362 130.68551,40.5110204 C130.546968,41.0888047 130.478484,41.6862682 130.478484,42.3034111 C130.478484,42.8945773 130.546968,43.4692128 130.68551,44.0273178 C130.822478,44.5854227 131.042886,45.0876385 131.34516,45.533965 C131.647434,45.9802915 132.04102,46.3384548 132.526706,46.6076676 C133.013178,46.8768805 133.603557,47.0114869 134.299417,47.0114869 C135.245598,47.0114869 135.983965,46.7225948 136.516093,46.1448105 C137.048222,45.5670262 137.372536,44.8050437 137.491399,43.8596501 L140.485015,43.8596501 C140.406297,44.7397085 140.20242,45.533965 139.874169,46.243207 C139.545918,46.952449 139.112974,47.5562099 138.574548,48.055277 C138.035335,48.554344 137.405598,48.9353353 136.682974,49.1982507 C135.961137,49.460379 135.166093,49.5918367 134.299417,49.5918367 C133.222566,49.5918367 132.254344,49.4044898 131.393965,49.0305831 C130.534373,48.6566764 129.808601,48.1410787 129.217434,47.4837901 C128.626268,46.8272886 128.173644,46.0558601 127.858776,45.1695044 C127.54312,44.2831487 127.385685,43.3275219 127.385685,42.3034111 C127.385685,41.2533236 127.54312,40.2780175 127.858776,39.3782799 C128.173644,38.4785423 128.626268,37.6937318 129.217434,37.0238484 C129.808601,36.3547522 130.534373,35.8297085 131.393965,35.4487172 C132.254344,35.0677259 133.222566,34.8772303 134.299417,34.8772303 C135.073994,34.8772303 135.806851,34.9890087 136.495627,35.2117784 C137.18519,35.4353353 137.80312,35.7604373 138.347843,36.1870845 C138.892566,36.6137318 139.342828,37.1427114 139.697055,37.772449 C140.051283,38.4029738 140.27484,39.1255977 140.366939,39.9395335 L137.372536,39.9395335 C137.319796,39.5853061 137.20172,39.2602041 137.018309,38.9650146"/>
        <polygon points="143.774 49.276 146.867 49.276 146.867 35.212 143.774 35.212"/>
        <polyline points="153.86 35.212 153.86 46.676 160.715 46.676 160.715 49.277 150.767 49.277 150.767 35.212 153.86 35.212"/>
    </g>
</svg>
