<?xml version="1.0" standalone="no"?>
<!DOCTYPE svg PUBLIC "-//W3C//DTD SVG 20010904//EN"
 "http://www.w3.org/TR/2001/REC-SVG-20010904/DTD/svg10.dtd">
<svg version="1.0" xmlns="http://www.w3.org/2000/svg"
 width="180.000000pt" height="180.000000pt" viewBox="0 0 180.000000 180.000000"
 preserveAspectRatio="xMidYMid meet">
<metadata>
Created by potrace 1.14, written by Peter Selinger 2001-2017
</metadata>
<g transform="translate(0.000000,180.000000) scale(0.100000,-0.100000)"
fill="#000000" stroke="none">
<path d="M996 1473 c-1 -1 -71 -3 -155 -4 -164 -1 -217 -11 -292 -54 -100 -56
-188 -177 -207 -285 -5 -25 -8 -218 -8 -430 l1 -385 365 0 c353 -1 465 6 517
33 10 5 31 16 46 23 58 27 136 115 175 196 l37 78 1 408 c1 340 -1 410 -12
414 -13 5 -463 11 -468 6z m419 -435 c-1 -239 -6 -385 -13 -406 -41 -124 -155
-225 -279 -248 -28 -5 -643 -9 -718 -5 -7 1 -10 126 -10 374 l1 372 30 65 c33
70 93 138 146 167 91 49 102 51 484 52 l361 2 -2 -373z"/>
<path d="M1133 1328 c-22 -24 -36 -85 -21 -94 4 -3 8 -1 8 3 0 18 57 40 100
39 l45 -2 3 -49 c2 -37 -2 -55 -17 -76 -12 -16 -21 -30 -21 -33 0 -13 77 6 94
24 18 17 21 34 21 115 l1 95 -96 0 c-87 0 -98 -2 -117 -22z"/>
<path d="M653 1314 c-70 -29 -135 -91 -164 -158 -21 -49 -22 -65 -23 -364 -1
-171 1 -312 5 -312 15 0 239 241 257 277 27 52 32 89 35 238 2 108 5 125 30
177 31 64 81 112 144 140 24 10 43 21 43 23 0 3 -61 4 -135 3 -116 -1 -144 -5
-192 -24z"/>
<path d="M995 1170 c-30 -11 -42 -30 -48 -72 -6 -44 -4 -45 25 -18 17 15 36
20 80 20 l58 0 0 -53 c0 -39 -5 -59 -20 -75 -27 -28 -25 -32 11 -32 20 0 40 9
58 28 25 25 27 32 26 117 l0 90 -85 1 c-47 1 -94 -2 -105 -6z"/>
<path d="M815 996 c-25 -22 -40 -82 -24 -92 5 -3 9 -1 9 4 0 16 50 32 99 32
l48 0 2 -53 c1 -41 -4 -59 -19 -75 -26 -28 -25 -32 9 -32 17 0 42 10 57 23 25
22 28 30 29 103 2 121 7 115 -97 113 -76 -1 -93 -5 -113 -23z"/>
<path d="M1350 955 c0 -43 -78 -141 -145 -180 -52 -31 -84 -36 -235 -40 -168
-4 -189 -14 -347 -168 -67 -66 -121 -123 -118 -127 2 -3 138 -6 302 -5 343 2
369 7 451 80 79 71 95 119 100 303 2 83 1 152 -2 152 -3 0 -6 -7 -6 -15z"/>
</g>
</svg>
